<svg width="43" height="43" viewBox="0 0 43 43" fill="none" xmlns="http://www.w3.org/2000/svg">
<path fill-rule="evenodd" clip-rule="evenodd" d="M13.0095 5.93872C16.211 5.93872 18.901 8.12837 19.6638 11.0918H33.6216V14.5271H19.6638C18.901 17.4905 16.211 19.6801 13.0095 19.6801C9.21491 19.6801 6.13879 16.604 6.13879 12.8094C6.13879 9.01484 9.21491 5.93872 13.0095 5.93872ZM13.0095 16.2448C14.9068 16.2448 16.4449 14.7067 16.4449 12.8094C16.4449 10.9121 14.9068 9.37407 13.0095 9.37407C11.1122 9.37407 9.57415 10.9121 9.57415 12.8094C9.57415 14.7067 11.1122 16.2448 13.0095 16.2448Z" fill="white"/>
<path fill-rule="evenodd" clip-rule="evenodd" d="M30.1863 35.1392C26.9848 35.1392 24.2947 32.9496 23.532 29.9862H9.57415V26.5508H23.532C24.2947 23.5875 26.9848 21.3978 30.1863 21.3978C33.9809 21.3978 37.057 24.4739 37.057 28.2685C37.057 32.0631 33.9809 35.1392 30.1863 35.1392ZM30.1863 31.7039C32.0836 31.7039 33.6216 30.1658 33.6216 28.2685C33.6216 26.3712 32.0836 24.8332 30.1863 24.8332C28.289 24.8332 26.7509 26.3712 26.7509 28.2685C26.7509 30.1658 28.289 31.7039 30.1863 31.7039Z" fill="white"/>
</svg>
